<mxfile host="app.diagrams.net" agent="Mozilla/5.0 (Macintosh; Intel Mac OS X 10_15_7) AppleWebKit/537.36 (KHTML, like Gecko) Chrome/131.0.0.0 Safari/537.36" version="25.0.3">
  <diagram name="PÃ¡gina-1" id="buZQFio3z31wMU2D6Iai">
    <mxGraphModel dx="1259" dy="622" grid="1" gridSize="10" guides="1" tooltips="1" connect="1" arrows="1" fold="1" page="1" pageScale="1" pageWidth="827" pageHeight="1169" math="0" shadow="0">
      <root>
        <mxCell id="0" />
        <mxCell id="1" parent="0" />
        <mxCell id="_1BsZLCH2sgriBW6m1lo-2" value="" style="swimlane;whiteSpace=wrap;html=1;startSize=0;dashed=1;" vertex="1" parent="1">
          <mxGeometry x="170" y="50" width="310" height="310" as="geometry" />
        </mxCell>
        <mxCell id="_1BsZLCH2sgriBW6m1lo-25" value="replica-set" style="aspect=fixed;sketch=0;html=1;dashed=0;whitespace=wrap;verticalLabelPosition=bottom;verticalAlign=top;fillColor=#2875E2;strokeColor=#ffffff;points=[[0.005,0.63,0],[0.1,0.2,0],[0.9,0.2,0],[0.5,0,0],[0.995,0.63,0],[0.72,0.99,0],[0.5,1,0],[0.28,0.99,0]];shape=mxgraph.kubernetes.icon2;kubernetesLabel=1;prIcon=rs" vertex="1" parent="_1BsZLCH2sgriBW6m1lo-2">
          <mxGeometry x="122.19" y="76" width="50" height="48" as="geometry" />
        </mxCell>
        <mxCell id="_1BsZLCH2sgriBW6m1lo-29" value="" style="rounded=0;whiteSpace=wrap;html=1;fillColor=none;" vertex="1" parent="_1BsZLCH2sgriBW6m1lo-2">
          <mxGeometry x="40" y="130" width="210" height="120" as="geometry" />
        </mxCell>
        <mxCell id="_1BsZLCH2sgriBW6m1lo-31" value="" style="aspect=fixed;sketch=0;html=1;dashed=0;whitespace=wrap;verticalLabelPosition=bottom;verticalAlign=top;fillColor=#2875E2;strokeColor=#ffffff;points=[[0.005,0.63,0],[0.1,0.2,0],[0.9,0.2,0],[0.5,0,0],[0.995,0.63,0],[0.72,0.99,0],[0.5,1,0],[0.28,0.99,0]];shape=mxgraph.kubernetes.icon2;kubernetesLabel=1;prIcon=pod" vertex="1" parent="_1BsZLCH2sgriBW6m1lo-2">
          <mxGeometry x="180" y="140" width="56.25" height="54" as="geometry" />
        </mxCell>
        <mxCell id="_1BsZLCH2sgriBW6m1lo-32" value="" style="aspect=fixed;sketch=0;html=1;dashed=0;whitespace=wrap;verticalLabelPosition=bottom;verticalAlign=top;fillColor=#2875E2;strokeColor=#ffffff;points=[[0.005,0.63,0],[0.1,0.2,0],[0.9,0.2,0],[0.5,0,0],[0.995,0.63,0],[0.72,0.99,0],[0.5,1,0],[0.28,0.99,0]];shape=mxgraph.kubernetes.icon2;kubernetesLabel=1;prIcon=pod" vertex="1" parent="_1BsZLCH2sgriBW6m1lo-2">
          <mxGeometry x="49.56" y="140" width="56.25" height="54" as="geometry" />
        </mxCell>
        <mxCell id="_1BsZLCH2sgriBW6m1lo-33" value="" style="aspect=fixed;sketch=0;html=1;dashed=0;whitespace=wrap;verticalLabelPosition=bottom;verticalAlign=top;fillColor=#2875E2;strokeColor=#ffffff;points=[[0.005,0.63,0],[0.1,0.2,0],[0.9,0.2,0],[0.5,0,0],[0.995,0.63,0],[0.72,0.99,0],[0.5,1,0],[0.28,0.99,0]];shape=mxgraph.kubernetes.icon2;kubernetesLabel=1;prIcon=pod" vertex="1" parent="_1BsZLCH2sgriBW6m1lo-2">
          <mxGeometry x="115.94" y="184" width="56.25" height="54" as="geometry" />
        </mxCell>
        <mxCell id="_1BsZLCH2sgriBW6m1lo-38" value="" style="sketch=0;points=[[0,0,0],[0.25,0,0],[0.5,0,0],[0.75,0,0],[1,0,0],[0,1,0],[0.25,1,0],[0.5,1,0],[0.75,1,0],[1,1,0],[0,0.25,0],[0,0.5,0],[0,0.75,0],[1,0.25,0],[1,0.5,0],[1,0.75,0]];outlineConnect=0;fontColor=#232F3E;fillColor=#ED7100;strokeColor=#ffffff;dashed=0;verticalLabelPosition=bottom;verticalAlign=top;align=center;html=1;fontSize=12;fontStyle=0;aspect=fixed;shape=mxgraph.aws4.resourceIcon;resIcon=mxgraph.aws4.eks_cloud;" vertex="1" parent="_1BsZLCH2sgriBW6m1lo-2">
          <mxGeometry x="-28.44" y="-20" width="58" height="58" as="geometry" />
        </mxCell>
        <mxCell id="_1BsZLCH2sgriBW6m1lo-34" style="edgeStyle=orthogonalEdgeStyle;rounded=0;orthogonalLoop=1;jettySize=auto;html=1;exitX=0.995;exitY=0.63;exitDx=0;exitDy=0;exitPerimeter=0;entryX=0;entryY=0.5;entryDx=0;entryDy=0;" edge="1" parent="1" source="_1BsZLCH2sgriBW6m1lo-30" target="_1BsZLCH2sgriBW6m1lo-29">
          <mxGeometry relative="1" as="geometry" />
        </mxCell>
        <mxCell id="_1BsZLCH2sgriBW6m1lo-30" value="load-balancer" style="aspect=fixed;sketch=0;html=1;dashed=0;whitespace=wrap;verticalLabelPosition=bottom;verticalAlign=top;fillColor=#2875E2;strokeColor=#ffffff;points=[[0.005,0.63,0],[0.1,0.2,0],[0.9,0.2,0],[0.5,0,0],[0.995,0.63,0],[0.72,0.99,0],[0.5,1,0],[0.28,0.99,0]];shape=mxgraph.kubernetes.icon2;kubernetesLabel=1;prIcon=svc" vertex="1" parent="1">
          <mxGeometry x="80" y="140" width="72.92" height="70" as="geometry" />
        </mxCell>
        <mxCell id="_1BsZLCH2sgriBW6m1lo-40" value="rds-pgsql" style="sketch=0;points=[[0,0,0],[0.25,0,0],[0.5,0,0],[0.75,0,0],[1,0,0],[0,1,0],[0.25,1,0],[0.5,1,0],[0.75,1,0],[1,1,0],[0,0.25,0],[0,0.5,0],[0,0.75,0],[1,0.25,0],[1,0.5,0],[1,0.75,0]];outlineConnect=0;fontColor=#232F3E;fillColor=#C925D1;strokeColor=#ffffff;dashed=0;verticalLabelPosition=bottom;verticalAlign=top;align=center;html=1;fontSize=12;fontStyle=0;aspect=fixed;shape=mxgraph.aws4.resourceIcon;resIcon=mxgraph.aws4.rds;" vertex="1" parent="1">
          <mxGeometry x="580" y="62" width="78" height="78" as="geometry" />
        </mxCell>
        <mxCell id="_1BsZLCH2sgriBW6m1lo-42" value="Amazon ElastiCache for Memcached" style="sketch=0;outlineConnect=0;fontColor=#232F3E;gradientColor=none;strokeColor=#ffffff;fillColor=#232F3E;dashed=0;verticalLabelPosition=middle;verticalAlign=bottom;align=center;html=1;whiteSpace=wrap;fontSize=10;fontStyle=1;spacing=3;shape=mxgraph.aws4.productIcon;prIcon=mxgraph.aws4.elasticache_for_memcached;" vertex="1" parent="1">
          <mxGeometry x="580" y="201" width="80" height="120" as="geometry" />
        </mxCell>
        <mxCell id="_1BsZLCH2sgriBW6m1lo-43" style="edgeStyle=orthogonalEdgeStyle;rounded=0;orthogonalLoop=1;jettySize=auto;html=1;exitX=1;exitY=0.5;exitDx=0;exitDy=0;entryX=0;entryY=0.5;entryDx=0;entryDy=0;entryPerimeter=0;" edge="1" parent="1" source="_1BsZLCH2sgriBW6m1lo-29" target="_1BsZLCH2sgriBW6m1lo-40">
          <mxGeometry relative="1" as="geometry" />
        </mxCell>
        <mxCell id="_1BsZLCH2sgriBW6m1lo-44" style="edgeStyle=orthogonalEdgeStyle;rounded=0;orthogonalLoop=1;jettySize=auto;html=1;exitX=1;exitY=0.5;exitDx=0;exitDy=0;" edge="1" parent="1" source="_1BsZLCH2sgriBW6m1lo-29" target="_1BsZLCH2sgriBW6m1lo-42">
          <mxGeometry relative="1" as="geometry" />
        </mxCell>
      </root>
    </mxGraphModel>
  </diagram>
</mxfile>
